<?xml version="1.0" encoding="UTF-8" standalone="no"?>
<svg width="38px" height="37px" viewBox="0 0 38 37" version="1.1" xmlns="http://www.w3.org/2000/svg" xmlns:xlink="http://www.w3.org/1999/xlink">
    <!-- Generator: Sketch 42 (36781) - http://www.bohemiancoding.com/sketch -->
    <title>behance</title>
    <desc>Created with Sketch.</desc>
    <defs>
        <polygon id="path-1" points="37.1066044 18.4999615 37.1066044 0 0 0 0 18.4999615 0 36.9999229 37.1066044 36.9999229"></polygon>
    </defs>
    <g id="otama" stroke="none" stroke-width="1" fill="none" fill-rule="evenodd">
        <g id="projects---side---otama-copy-3" transform="translate(-1085.000000, -871.000000)">
            <g id="Group-2" transform="translate(1038.000000, 871.000000)">
                <g id="behance" transform="translate(47.349187, 0.000000)">
                    <g id="Group-3">
                        <mask id="mask-2" fill="white">
                            <use xlink:href="#path-1"></use>
                        </mask>
                        <g id="Clip-2"></g>
                        <path d="M30.019243,21.1855063 L22.5669999,21.1855063 C22.5669999,23.9905688 25.0987526,23.8125063 25.0987526,23.8125063 C27.4890364,23.8125063 27.4047735,22.1883604 27.4047735,22.1883604 L29.9365262,22.1883604 C29.9365262,26.4988604 25.0137167,26.2044021 25.0137167,26.2044021 C19.1075821,26.2044021 19.4879248,20.4324021 19.4879248,20.4324021 C19.4879248,20.4324021 19.4832865,14.6326521 25.0137167,14.6326521 C30.8348152,14.6326521 30.019243,21.1855063 30.019243,21.1855063 L30.019243,21.1855063 Z M18.920503,21.4329437 C18.920503,26.0394437 14.3509793,26.2082562 14.3509793,26.2082562 L10.1641174,26.2082562 L10.0412018,26.2082562 L7.04793568,26.2082562 L7.04793568,10.7915896 L10.0412018,10.7915896 L10.1641174,10.7915896 L14.3509793,10.7915896 C16.6253049,10.7915896 18.4203369,12.1104854 18.4203369,14.8122562 C18.4203369,17.5124854 16.2264089,17.6836104 16.2264089,17.6836104 C19.1191779,17.6836104 18.920503,21.4329437 18.920503,21.4329437 L18.920503,21.4329437 Z M21.9191805,13.1040896 L27.8531449,13.1040896 L27.8531449,11.6803604 L21.9191805,11.6803604 L21.9191805,13.1040896 Z M18.5540753,-7.70833333e-05 C8.30724107,-7.70833333e-05 0,8.28175625 0,18.4999229 C0,28.7165479 8.30724107,36.9999229 18.5540753,36.9999229 C28.7993634,36.9999229 37.1066044,28.7165479 37.1066044,18.4999229 C37.1066044,8.28175625 28.7993634,-7.70833333e-05 18.5540753,-7.70833333e-05 L18.5540753,-7.70833333e-05 Z" id="Fill-1" fill="#302924" mask="url(#mask-2)"></path>
                    </g>
                    <path d="M14.3513658,19.1712417 L10.1645039,19.1712417 L10.1645039,23.2057833 L13.8712991,23.2057833 C13.9346895,23.2057833 14.0290022,23.207325 14.140322,23.2057833 C14.7348007,23.1919083 15.8657791,23.0092208 15.8657791,21.2440125 C15.8657791,19.1488875 14.3513658,19.1712417 14.3513658,19.1712417" id="Fill-4" fill="#302924"></path>
                    <path d="M15.3678548,15.0448167 C15.3678548,13.4761708 14.3512885,13.4761708 14.3512885,13.4761708 L13.8124697,13.4761708 L10.1644266,13.4761708 L10.1644266,16.8431708 L14.0923153,16.8431708 C14.7702839,16.8431708 15.3678548,16.6150042 15.3678548,15.0448167" id="Fill-6" fill="#302924"></path>
                    <path d="M25.0703042,16.8435562 C22.8477732,16.8435562 22.5385515,19.1714729 22.5385515,19.1714729 L27.261913,19.1714729 C27.261913,19.1714729 27.2928352,16.8435562 25.0703042,16.8435562" id="Fill-8" fill="#302924"></path>
                </g>
            </g>
        </g>
    </g>
</svg>